<svg xmlns="http://www.w3.org/2000/svg" style="display: none;">
  <symbol id="fb" viewBox="0 0 40 40">
    <path
        d="M21.359 16.35v-1.465c0-.702.474-.87.81-.87h2.045v-3.13H21.39c-3.131 0-3.833 2.32-3.833 3.818v1.648H15.74V20h1.832v9.116h3.648V20h2.703l.123-1.435.213-2.214h-2.901z"
        fill-rule="evenodd"/>
  </symbol>
  <symbol id="vk" viewBox="0 0 40 40">
    <path
        d="M18.411 24.693c1.832 0 4.095.314 4.135-1.848.041-2.255-2.325-1.848-4.134-1.848v3.696zm.001-8.218v1.928c1.672 0 3.243.23 3.243-1.654 0-1.745-1.778-1.457-3.245-1.457l.002 1.183zm-3.528-3.904h6.491c2.137 0 3.955 1.088 3.953 3.287-.002 1.836-.642 2.55-1.956 3.36.112.095.865.329 1.119.458.404.208.642.417.91.699.744.787.885 1.507.885 2.744 0 2.867-2.67 4.31-5.239 4.31h-6.19l.027-14.858z"
        fill-rule="evenodd"/>
  </symbol>
  <symbol id="tw" viewBox="0 0 40 40">
    <path
        d="M29.392 15.303a7.043 7.043 0 0 1-2.028.556 3.535 3.535 0 0 0 1.552-1.953 7.067 7.067 0 0 1-2.242.857 3.53 3.53 0 0 0-6.015 3.22 10.026 10.026 0 0 1-7.278-3.689 3.524 3.524 0 0 0-.477 1.775 3.53 3.53 0 0 0 1.57 2.938 3.52 3.52 0 0 1-1.6-.441v.045a3.534 3.534 0 0 0 2.832 3.461 3.507 3.507 0 0 1-1.593.06 3.533 3.533 0 0 0 3.298 2.452 7.078 7.078 0 0 1-5.227 1.462 9.988 9.988 0 0 0 5.41 1.586c6.495 0 10.046-5.379 10.046-10.045a9.88 9.88 0 0 0-.01-.456 7.19 7.19 0 0 0 1.762-1.828"
        fill-rule="evenodd"/>
  </symbol>
  <symbol id="ok" viewBox="0 0 40 40">
    <g fill-rule="evenodd">
      <path d="M18.808 24.083c-.291-.16-1.187-.285-1.612-.424-4.696-1.536-3.022-3.809-1.676-3.673.481.05.917.457 1.289.674 1.959 1.143 4.528 1.12 6.46-.05.415-.252.76-.663 1.388-.628.841.046 2.548 1.526-.453 3.07-1.647.844-1.722.606-3.013 1.008.222.447 2.587 2.666 3.259 3.35 1.117 1.138.165 2.43-.98 2.3-.728-.084-3.015-2.558-3.429-3.065-.932.474-2.576 2.906-3.479 3.054-1.191.196-2.185-1.186-.974-2.383l3.22-3.233z"/>
      <path d="M20.626 17.494c-3.046.816-4.35-3.748-1.225-4.621 1.454-.407 2.62.606 2.916 1.716.381 1.426-.619 2.617-1.69 2.905m4.13-3.354c-.524-2.282-2.93-4.513-5.878-3.68-6.428 1.814-3.829 10.832 2.196 9.471 2.27-.51 4.352-2.87 3.682-5.792"/>
    </g>
  </symbol>
  <symbol id="in" viewBox="0 0 40 40">
    <g fill-rule="evenodd">
      <path d="M15.908 12.128a3.783 3.783 0 0 0-3.78 3.78v8.184a3.784 3.784 0 0 0 3.78 3.78h8.185a3.784 3.784 0 0 0 3.779-3.78v-8.185a3.783 3.783 0 0 0-3.78-3.779h-8.184zM24.093 29.5h-8.185a5.414 5.414 0 0 1-5.407-5.408v-8.185a5.413 5.413 0 0 1 5.407-5.407h8.185a5.414 5.414 0 0 1 5.407 5.407v8.185a5.415 5.415 0 0 1-5.407 5.408z"/>
      <path d="M20 16.764A3.24 3.24 0 0 0 16.764 20 3.24 3.24 0 0 0 20 23.237 3.24 3.24 0 0 0 23.236 20 3.24 3.24 0 0 0 20 16.764m0 8.102A4.87 4.87 0 0 1 15.135 20 4.87 4.87 0 0 1 20 15.136 4.87 4.87 0 0 1 24.864 20 4.87 4.87 0 0 1 20 24.866M26.242 14.857a1.169 1.169 0 1 1-2.337 0 1.169 1.169 0 0 1 2.337 0"/>
    </g>
  </symbol>
  <symbol id="tg" viewBox="0 0 40 40">
    <path
        d="M28.236 12.954c-.698 3.176-2.402 10.913-3.15 14.179a.584.584 0 0 1-.374.426.585.585 0 0 1-.562-.08l-6.603-4.883 7.86-6.527c.009-.007.016-.012.022-.02.255-.241.29-.61.083-.872-.214-.276-.596-.332-.91-.137l-10.237 6.004-4.382-1.334a.312.312 0 0 1-.228-.298.31.31 0 0 1 .209-.312l17.669-6.667a.443.443 0 0 1 .457.082.443.443 0 0 1 .146.439zM16.96 26.429l.256-3.02 1.73 1.28-1.986 1.74zm-.374-4.141a.427.427 0 0 0-.153.29l-.283 3.33-1.23-4.204 8.068-4.731-6.402 5.315zm12.06-10.417a1.3 1.3 0 0 0-1.313-.233l-17.67 6.666a1.155 1.155 0 0 0-.758 1.135c.017.51.343.936.83 1.084l4.34 1.322 1.432 4.896a.45.45 0 0 0 .108.182s.594.556.593.539a.59.59 0 0 0 .429.187.582.582 0 0 0 .384-.144l2.626-2.298 3.997 2.956a1.449 1.449 0 0 0 2.27-.84c.749-3.27 2.454-11.01 3.152-14.186a1.3 1.3 0 0 0-.42-1.266z"
        fill-rule="evenodd"/>
  </symbol>
  <symbol id="search" viewBox="0 0 56.966 56.966">
    <path d="M55.146,51.887L41.588,37.786c3.486-4.144,5.396-9.358,5.396-14.786c0-12.682-10.318-23-23-23s-23,10.318-23,23
  s10.318,23,23,23c4.761,0,9.298-1.436,13.177-4.162l13.661,14.208c0.571,0.593,1.339,0.92,2.162,0.92
  c0.779,0,1.518-0.297,2.079-0.837C56.255,54.982,56.293,53.08,55.146,51.887z M23.984,6c9.374,0,17,7.626,17,17s-7.626,17-17,17
  s-17-7.626-17-17S14.61,6,23.984,6z"/>
  </symbol>
  <symbol id="next_arrow" viewBox="0 0 59.414 59.414">
    <polygon points="15.561,59.414 14.146,58 42.439,29.707 14.146,1.414 15.561,0 45.268,29.707  "/>
  </symbol>
  <symbol id="prev_arrow" viewBox="0 0 59.414 59.414">
    <polygon points="43.854,59.414 14.146,29.707 43.854,0 45.268,1.414 16.975,29.707 45.268,58  "/>
  </symbol>
  <symbol id="burger_close" viewBox="0 0 31.112 31.112">
    <polygon points="31.112,1.414 29.698,0 15.556,14.142 1.414,0 0,1.414 14.142,15.556 0,29.698 1.414,31.112 15.556,16.97   29.698,31.112 31.112,29.698 16.97,15.556 "></polygon>
  </symbol>


</svg>