<svg version="1.1" id="Isolation_Mode" xmlns="http://www.w3.org/2000/svg" xmlns:xlink="http://www.w3.org/1999/xlink" x="0px"
	 y="0px" viewBox="0 0 141.7 53.9" style="enable-background:new 0 0 141.7 53.9;" xml:space="preserve">
<style type="text/css">
	.st0{fill:#FFFFFF;}
	.st1{fill:#EF7723;}
</style>
<path class="st0" d="M72.9,28.5c0,2.4-1,4-3.4,4.3c-1.7,0.3-3.6,0.3-5.4,0c-2.2-0.4-3.2-1.9-3.2-4.3c0-5.9,0.1-11.8,0-17.6
	c-0.1-3.5,1.6-4.7,4.4-5.2c1.5-0.3,3.2,0,4.7,0.5c2.1,0.6,2.8,1.8,2.8,4c0,3.1,0,6.2,0,9.4h0C72.9,22.5,72.9,25.5,72.9,28.5
	 M79.3,9.2c0-3.8-1.7-6.5-5.3-7.9c-4.1-1.6-8.3-1.5-12.5-0.5c-4.7,1.2-6.7,3.9-6.7,8.8v9.7c0,3.4,0,6.8,0,10.3
	c0,4.5,2.3,7.3,6.7,8.5c3.3,0.9,6.6,1,9.9,0.3c4.7-1,8-3.5,7.9-9.4C79.2,22.4,79.3,15.8,79.3,9.2 M104.2,28.2c0,2.8-0.5,3.7-3.2,4.5
	c-2.2,0.6-4.6,0.8-6.8-0.4c-1.3-0.7-2-1.7-2-3.1c0-6.5,0-13.1,0-19.6c0-2.1,1.8-3.7,4.7-3.9c1.4-0.1,2.9,0.1,4.2,0.5
	c2.1,0.6,2.9,1.9,2.9,4.1c0,3.1,0,6.1,0,9.2C104.2,22.4,104.2,25.3,104.2,28.2 M110.4,19.4L110.4,19.4c0-3.5-0.1-7.1,0-10.6
	c0.1-3.8-1.8-6.2-5.1-7.5c-4.2-1.7-8.7-1.6-13-0.4c-4.5,1.3-6.1,3.8-6.1,8.4c0,7,0,14,0,21.1c0,2.9,1.3,5.1,3.8,6.4
	c4.7,2.5,9.7,2.5,14.6,0.9c3.3-1,6.2-3,5.9-8.4C110.2,26.1,110.4,22.7,110.4,19.4 M19,18.5c-3.3-1.2-6.7-2.3-10-3.6
	c-1.7-0.6-2.7-1.9-2.8-3.8C6,9.1,6.3,7.3,8.4,6.3c4.5-2.2,8.5-0.5,10,4.2c1.9,0,3.9,0,5.8,0c0.5-5.1-1.3-8.3-6-9.5
	c-2.9-0.7-6-0.8-9-0.7C5.8,0.5,2.7,1.8,1,5C-0.2,7.2,0,9.5,0,11.8c0,4.1,2,6.8,5.9,8.2c3.1,1.1,6.3,2.2,9.4,3.4
	c2.5,1,3.4,3.4,2.7,6.5c-0.4,1.9-2,3-4.5,3.1c-0.6,0-1.2,0-1.8,0C7.9,33,6.5,31.9,6,28c-0.2,0-0.4-0.1-0.7-0.1c-1.7,0-3.4,0-5.1,0
	c-0.6,5.2,1.3,8.5,6.1,9.9c4.2,1.3,8.5,1.3,12.7-0.3c3.2-1.2,5.3-3.4,5.4-7.1c0-1.7,0.1-3.5-0.1-5.2C23.9,22,22.2,19.7,19,18.5
	 M45.1,2.6c-1.1-0.8-2.2-1.4-3.4-1.7v8.4c0.1,0.5,0.2,1.1,0.2,1.8c0,4.3-0.1,8.7,0,13c0,1,0,1.8-0.2,2.5v0c-0.5,2.2-2,3.1-4.3,3.9
	c-0.5,0.2-1,0.3-1.5,0.5c-5.7,2.1-8.5,6-8.5,12v8h6.1c0-3.3,0-6.4,0-9.6c0-2.4,0.8-3.7,3.1-4.5c1.7-0.6,3.4-1.1,5.1-1.6
	c0.1,0,0.1,0,0.2-0.1c4-1.3,6.1-4.3,6.1-8.4c0-6.1,0-12.1,0-18.2C47.9,6.1,47,4.1,45.1,2.6 M41.7,9.3V0.9c-2.8-0.9-5.7-0.8-8.8-0.6
	v5.5c1.3-0.1,2.3-0.2,3.4-0.2C39.3,5.6,41.1,6.9,41.7,9.3 M141.7,9.1c0.1-3.9-1.7-6.4-5.2-7.8c-4.6-1.7-9.3-1.7-13.8,0
	c-3.7,1.4-5.4,4.2-5.4,8.2c0.1,8,0,16,0,24c0,1.5,0,3,0,4.5h6.1c0-0.9,0-1.6,0-2.4c0-8.6,0.1-17.2,0.1-25.8c0-1.9,1-3.1,2.7-3.6
	c1.6-0.4,3.4-0.7,5.1-0.6c2.4,0.3,4.3,1.6,4.3,4.9c-0.2,8.5-0.1,16.9-0.1,25.4v1.9h6.1v-2C141.7,27,141.6,18,141.7,9.1"/>
<path class="st1" d="M37.2,44.5h0.4v1.1c0.3-0.8,0.9-1.2,1.8-1.2v0.4c-1.4,0.1-1.8,1-1.8,2.9v3h-0.4V44.5z"/>
<path class="st1" d="M44.4,47.3c0-1.6-0.9-2.5-2.1-2.5c-1.3,0-2.2,0.9-2.2,2.5H44.4z M42.2,50.8c-1.6,0-2.6-1.2-2.6-3.2
	c0-2,1-3.2,2.6-3.2c1.6,0,2.6,1.1,2.6,3v0.2H40v0.1c0,1.7,0.9,2.7,2.2,2.7c1,0,1.8-0.6,2.1-1.6h0.4C44.4,50,43.4,50.8,42.2,50.8"/>
<path class="st1" d="M45.8,46c0-0.9,0.8-1.6,2.1-1.6c1.2,0,1.9,0.7,2.1,1.8h-0.4c-0.1-0.9-0.7-1.4-1.7-1.4c-1,0-1.6,0.5-1.6,1.2
	c0,0.7,0.4,1,1.2,1.2c0.2,0.1,0.5,0.1,0.8,0.2c1.3,0.3,2,0.7,2,1.7c0,1-0.9,1.7-2.2,1.7c-1.3,0-2.2-0.7-2.3-2H46
	c0.2,1.1,0.9,1.6,1.9,1.6c1.1,0,1.8-0.5,1.8-1.4c0-0.6-0.4-1-1.2-1.2c-1-0.3-1.8-0.4-2.2-0.8C46,46.8,45.8,46.4,45.8,46"/>
<path class="st1" d="M52.5,50.4h0.6v0.3h-0.6c-0.6,0-0.8-0.3-0.8-1.1v-4.8h-1.1v-0.3h1.1v-1.7H52v1.7h1.1v0.3H52v4.4
	C52,50.1,52,50.4,52.5,50.4"/>
<path class="st1" d="M56.3,47.5C54.7,47.7,54,48,54,49c0,0.9,0.5,1.4,1.5,1.4c0.7,0,1.3-0.2,1.7-0.6c0.5-0.5,0.6-1,0.6-1.8v-0.9
	C57.7,47.3,57.2,47.4,56.3,47.5 M58.7,50.7c-0.6,0-0.8-0.3-0.8-1.1c-0.5,0.7-1.3,1.2-2.4,1.2c-1.1,0-1.8-0.7-1.8-1.7
	c0-1.1,0.8-1.6,2.4-1.8c1.2-0.2,1.8-0.1,1.8-0.7V46c0-0.8-0.6-1.3-1.6-1.3c-1.2,0-1.9,0.6-2,1.5h-0.3c0-1.1,0.9-1.8,2.3-1.8
	c0.9,0,1.5,0.2,1.8,0.7c0.3,0.3,0.3,0.8,0.3,1.3v3c0,0.8,0.1,1.1,0.5,1.1c0.1,0,0.1,0,0.2,0v0.3C58.8,50.6,58.7,50.7,58.7,50.7"/>
<path class="st1" d="M64.3,50.6h-0.4v-1c-0.4,0.7-1.1,1.1-2,1.1c-1.4,0-2.1-0.7-2.1-2.2v-4.1h0.4v4c0,1.3,0.5,1.9,1.7,1.9
	c0.7,0,1.2-0.2,1.6-0.6c0.5-0.5,0.5-1.2,0.5-2v-3.3h0.4V50.6z"/>
<path class="st1" d="M65.8,44.5h0.4v1.1c0.3-0.8,0.9-1.2,1.8-1.2v0.4c-1.4,0.1-1.8,1-1.8,2.9v3h-0.4V44.5z"/>
<path class="st1" d="M70.9,47.5c-1.6,0.2-2.3,0.5-2.3,1.5c0,0.9,0.5,1.4,1.5,1.4c0.7,0,1.3-0.2,1.7-0.6c0.5-0.5,0.6-1,0.6-1.8v-0.9
	C72.3,47.3,71.8,47.4,70.9,47.5 M73.3,50.7c-0.6,0-0.8-0.3-0.8-1.1c-0.5,0.7-1.3,1.2-2.4,1.2c-1.1,0-1.8-0.7-1.8-1.7
	c0-1.1,0.8-1.6,2.4-1.8c1.2-0.2,1.8-0.1,1.8-0.7V46c0-0.8-0.6-1.3-1.6-1.3c-1.2,0-1.9,0.6-2,1.5h-0.3c0-1.1,0.9-1.8,2.3-1.8
	c0.9,0,1.5,0.2,1.8,0.7c0.3,0.3,0.3,0.8,0.3,1.3v3c0,0.8,0.1,1.1,0.5,1.1c0.1,0,0.1,0,0.2,0v0.3C73.5,50.6,73.4,50.7,73.3,50.7"/>
<path class="st1" d="M74.5,44.5h0.4v1c0.4-0.7,1.1-1.1,2.1-1.1c1.4,0,2.1,0.7,2.1,2.2v4h-0.4v-3.9c0-1.3-0.5-2-1.7-2
	c-0.7,0-1.2,0.2-1.6,0.6c-0.5,0.5-0.5,1.2-0.5,2v3.3h-0.4V44.5z"/>
<path class="st1" d="M81.6,50.4h0.6v0.3h-0.6c-0.6,0-0.8-0.3-0.8-1.1v-4.8h-1.1v-0.3h1.1v-1.7h0.4v1.7h1.1v0.3h-1.1v4.4
	C81.1,50.1,81.1,50.4,81.6,50.4"/>
<path class="st1" d="M87.6,47.5c0,0.7,0.3,1.9,1.4,1.9c1,0,1.4-0.9,1.4-1.8c0-1-0.3-2-1.4-2C87.9,45.6,87.6,46.6,87.6,47.5
	 M91.9,44.4v5.9c0,1.1-0.1,2.9-3.1,2.9c-1.3,0-2.6-0.6-2.7-1.9h1.8c0.1,0.3,0.2,0.6,1.1,0.6c0.9,0,1.4-0.5,1.4-1.5v-0.8h0
	c-0.3,0.5-0.8,1.1-1.7,1.1c-1.5,0-2.7-1.1-2.7-3.3c0-2.2,1.3-3.2,2.6-3.2c1.2,0,1.6,0.7,1.8,1.1h0v-0.9H91.9z"/>
<path class="st1" d="M94.9,44.4v3.9c0,1,0.6,1.1,1.1,1.1c0.5,0,1.3-0.3,1.3-1.4v-3.6h1.6v6.2h-1.6v-0.9h0c-0.4,0.7-1,1-1.9,1
	c-1.2,0-2.1-0.7-2.1-2.3v-4.1H94.9z"/>
<path class="st1" d="M101.9,50.6h-1.6v-6.2h1.6V50.6z M101.9,43.6h-1.6v-1.5h1.6V43.6z"/>
<path class="st1" d="M104.7,47.5c0,0.7,0.3,1.9,1.4,1.9c1,0,1.4-0.9,1.4-1.8c0-1-0.3-2-1.4-2C105,45.6,104.7,46.6,104.7,47.5
	 M109,50.6h-1.6v-0.8h0c-0.4,0.7-1.1,1-1.8,1c-1.9,0-2.6-1.6-2.6-3.3c0-2.2,1.2-3.2,2.6-3.2c1.1,0,1.5,0.6,1.8,1h0v-3h1.6V50.6z"/>
<path class="st1" d="M114.3,46.9c-0.1-1-0.7-1.3-1.3-1.3c-0.8,0-1.2,0.5-1.3,1.3H114.3z M115.9,48.8c-0.4,1.5-1.7,2-2.7,2
	c-1.8,0-3.1-0.8-3.1-3.4c0-0.8,0.3-3.2,3-3.2c1.8,0,2.9,1,2.9,3.1v0.6h-4.2c0,0.5,0.1,1.5,1.4,1.5c0.5,0,0.9-0.2,1.1-0.7H115.9z"/>
<path class="st1" d="M120,50c0-0.4,0-0.8,0.3-1.2c0.2-0.4,0.8-0.9,1.7-1.4c0.8-0.5,1.5-0.8,1.9-1.3c0.4-0.4,0.6-0.8,0.6-1.4
	c0-1.1-0.8-1.9-1.9-1.9c-1.2,0-2,0.8-2,2v0.1h-0.4v-0.1c0-1.5,1-2.4,2.4-2.4c1.4,0,2.3,0.9,2.3,2.2c0,1.3-0.7,1.9-2,2.6
	c-1.6,1-2.5,1.6-2.5,2.7c0,0.1,0,0.2,0,0.3h4.5v0.3H120V50z"/>
<path class="st1" d="M128.5,50.5c1.4,0,2.2-1.3,2.2-3.9c0-2.5-0.8-3.8-2.2-3.8c-1.4,0-2.2,1.3-2.2,3.8
	C126.3,49.2,127.1,50.5,128.5,50.5 M128.5,42.4c1.6,0,2.6,1.5,2.6,4.2c0,2.7-1,4.2-2.6,4.2c-1.6,0-2.6-1.5-2.6-4.2
	C125.9,43.9,126.9,42.4,128.5,42.4"/>
<path class="st1" d="M134.4,43.7c-0.5,0.6-1.1,0.8-1.9,0.8h-0.1v-0.3c1.2,0,1.9-0.5,2-1.5h0.4v7.9h-0.4V43.7z"/>
<path class="st1" d="M141.1,43h-4.3v-0.4h4.7v0.4c-1.7,2-2.7,4.5-3.2,7.6H138C138.4,47.8,139.4,45.3,141.1,43"/>
</svg>
