<svg version="1.1" id="Capa_1" xmlns="http://www.w3.org/2000/svg" xmlns:xlink="http://www.w3.org/1999/xlink" x="0px" y="0px"
	 viewBox="0 0 40 40" style="enable-background:new 0 0 40 40;" xml:space="preserve">
<path fill="#fff"
        d="M18.411 24.693c1.832 0 4.095.314 4.135-1.848.041-2.255-2.325-1.848-4.134-1.848v3.696zm.001-8.218v1.928c1.672 0 3.243.23 3.243-1.654 0-1.745-1.778-1.457-3.245-1.457l.002 1.183zm-3.528-3.904h6.491c2.137 0 3.955 1.088 3.953 3.287-.002 1.836-.642 2.55-1.956 3.36.112.095.865.329 1.119.458.404.208.642.417.91.699.744.787.885 1.507.885 2.744 0 2.867-2.67 4.31-5.239 4.31h-6.19l.027-14.858z"
        fill-rule="evenodd"/>
</svg>
